<svg xmlns="http://www.w3.org/2000/svg" width="70" height="70" viewBox="0 0 70 70" fill="none">
    <circle cx="35.0002" cy="35.0012" r="32.4074" fill="black"/>
    <circle cx="35" cy="35" r="34.5" stroke="black"/>
    <path d="M45.4431 48.068H47.2804C49.7592 48.068 51.7131 47.3833 53.1421 46.014C54.5711 44.6446 56.0001 42.2631 57.4291 38.8397C57.6332 38.3931 57.8082 38.1848 58.0415 38.1848C58.0998 38.1848 58.1582 38.1848 58.2165 38.1848C58.2748 38.1848 58.304 38.1848 58.3332 38.1848L56.1168 49.2588C54.8627 48.8718 52.3839 48.6634 48.6802 48.6634H32.4072V48.4252C32.4072 48.2168 32.6114 48.0978 33.0488 47.9787C33.4863 47.8894 33.982 47.7703 34.507 47.681C35.0611 47.5619 35.5277 47.2047 35.9651 46.6093C36.4026 46.014 36.6067 45.1804 36.6067 44.079V24.6399C36.6067 23.7469 36.4026 23.0622 35.9651 22.5859C35.5277 22.1096 35.0611 21.8119 34.5361 21.7226C34.0112 21.6333 33.5446 21.5142 33.1071 21.4249C32.6697 21.3058 32.4656 21.157 32.4656 20.9784V20.7402H46.143V20.9784C46.143 21.1868 45.9097 21.3356 45.4723 21.4249C45.0348 21.544 44.539 21.6333 44.0141 21.7226C43.4892 21.8119 42.9934 22.1096 42.556 22.6157C42.1185 23.1217 41.8852 23.8064 41.8852 24.6697C41.8852 26.5154 41.8852 29.8495 41.8852 34.672C41.8852 39.4946 41.8852 42.7989 41.8852 44.6744C41.8852 45.7758 42.1768 46.6391 42.7309 47.2047C43.285 47.8001 44.2183 48.068 45.4723 48.068H45.4431Z" fill="white"/>
    <path fill-rule="evenodd" clip-rule="evenodd" d="M27.2227 47.7543C25.1361 47.4991 23.6356 46.767 22.7355 45.5438C21.5935 43.9918 21.0078 41.7371 21.0078 38.7504V26.54C21.0078 25.398 21.1835 24.4317 21.5056 23.5825C21.652 23.0262 21.9449 22.5577 22.3548 22.2356C22.7648 21.9135 23.204 21.7085 23.6432 21.6499C24.0824 21.5914 24.4631 21.5035 24.8145 21.4157C25.1366 21.2985 25.3123 21.1814 25.3123 20.9764V20.7422H11.667V20.9764C11.667 21.1521 11.9012 21.2985 12.3112 21.4157C12.4149 21.4379 12.5243 21.462 12.6379 21.487C12.9731 21.5609 13.3449 21.6429 13.7167 21.7085C14.2145 21.7963 14.7123 22.0891 15.1222 22.5577C15.5615 23.0262 15.7664 23.6996 15.7664 24.5781V38.4576C15.7664 45.1467 19.5944 48.5708 27.2227 48.7022V47.7543Z" fill="white"/>
</svg>
