<svg xmlns="http://www.w3.org/2000/svg" width="113" height="114" viewBox="0 0 113 114" fill="none">
    <mask id="path-1-inside-1_2_196" fill="white">
        <path fill-rule="evenodd" clip-rule="evenodd" d="M56.188 113.812C56.1882 113.812 56.1884 113.812 56.1885 113.812C87.5647 113.812 113 88.3763 113 57.0001C113 25.6239 87.5647 0.188477 56.1885 0.188477C56.1884 0.188477 56.1882 0.188477 56.188 0.188477V113.812Z"/>
    </mask>
    <path d="M56.188 113.812H55.188V114.812H56.188V113.812ZM56.188 0.188477V-0.811523H55.188V0.188477H56.188ZM56.1885 112.812C56.1885 112.812 56.1885 112.812 56.1885 112.812C56.1885 112.812 56.1885 112.812 56.1885 112.812C56.1885 112.812 56.1885 112.812 56.1885 112.812C56.1885 112.812 56.1885 112.812 56.1885 112.812C56.1885 112.812 56.1885 112.812 56.1885 112.812C56.1885 112.812 56.1885 112.812 56.1885 112.812C56.1885 112.812 56.1885 112.812 56.1885 112.812C56.1885 112.812 56.1885 112.812 56.1885 112.812C56.1885 112.812 56.1885 112.812 56.1885 112.812C56.1885 112.812 56.1885 112.812 56.1885 112.812C56.1885 112.812 56.1885 112.812 56.1885 112.812C56.1885 112.812 56.1885 112.812 56.1885 112.812C56.1885 112.812 56.1885 112.812 56.1885 112.812C56.1885 112.812 56.1885 112.812 56.1885 112.812C56.1885 112.812 56.1885 112.812 56.1885 112.812C56.1885 112.812 56.1885 112.812 56.1885 112.812C56.1885 112.812 56.1885 112.812 56.1885 112.812C56.1885 112.812 56.1885 112.812 56.1885 112.812C56.1885 112.812 56.1885 112.812 56.1885 112.812C56.1885 112.812 56.1885 112.812 56.1885 112.812C56.1885 112.812 56.1885 112.812 56.1885 112.812C56.1885 112.812 56.1885 112.812 56.1885 112.812C56.1885 112.812 56.1885 112.812 56.1885 112.812C56.1885 112.812 56.1885 112.812 56.1885 112.812C56.1885 112.812 56.1885 112.812 56.1885 112.812C56.1885 112.812 56.1885 112.812 56.1885 112.812C56.1885 112.812 56.1885 112.812 56.1885 112.812C56.1885 112.812 56.1885 112.812 56.1885 112.812C56.1885 112.812 56.1885 112.812 56.1885 112.812C56.1885 112.812 56.1885 112.812 56.1885 112.812C56.1885 112.812 56.1885 112.812 56.1885 112.812C56.1885 112.812 56.1885 112.812 56.1885 112.812C56.1885 112.812 56.1885 112.812 56.1885 112.812C56.1885 112.812 56.1885 112.812 56.1885 112.812C56.1885 112.812 56.1885 112.812 56.1885 112.812C56.1885 112.812 56.1885 112.812 56.1885 112.812C56.1885 112.812 56.1885 112.812 56.1885 112.812C56.1885 112.812 56.1885 112.812 56.1885 112.812C56.1885 112.812 56.1885 112.812 56.1885 112.812C56.1885 112.812 56.1885 112.812 56.1885 112.812C56.1885 112.812 56.1885 112.812 56.1885 112.812C56.1885 112.812 56.1885 112.812 56.1885 112.812C56.1885 112.812 56.1885 112.812 56.1885 112.812C56.1885 112.812 56.1885 112.812 56.1885 112.812C56.1885 112.812 56.1885 112.812 56.1885 112.812C56.1885 112.812 56.1885 112.812 56.1885 112.812C56.1885 112.812 56.1885 112.812 56.1885 112.812C56.1885 112.812 56.1885 112.812 56.1885 112.812C56.1885 112.812 56.1885 112.812 56.1885 112.812C56.1885 112.812 56.1885 112.812 56.1885 112.812C56.1885 112.812 56.1885 112.812 56.1885 112.812C56.1885 112.812 56.1885 112.812 56.1885 112.812C56.1885 112.812 56.1885 112.812 56.1885 112.812C56.1885 112.812 56.1885 112.812 56.1885 112.812C56.1885 112.812 56.1885 112.812 56.1885 112.812C56.1885 112.812 56.1885 112.812 56.1885 112.812C56.1885 112.812 56.1885 112.812 56.1885 112.812C56.1885 112.812 56.1885 112.812 56.1885 112.812C56.1885 112.812 56.1885 112.812 56.1885 112.812C56.1885 112.812 56.1885 112.812 56.1885 112.812C56.1885 112.812 56.1885 112.812 56.1885 112.812C56.1885 112.812 56.1885 112.812 56.1885 112.812C56.1885 112.812 56.1885 112.812 56.1885 112.812C56.1885 112.812 56.1885 112.812 56.1885 112.812C56.1885 112.812 56.1885 112.812 56.1885 112.812C56.1885 112.812 56.1885 112.812 56.1885 112.812C56.1885 112.812 56.1885 112.812 56.1885 112.812C56.1885 112.812 56.1885 112.812 56.1885 112.812C56.1885 112.812 56.1885 112.812 56.1885 112.812C56.1885 112.812 56.1885 112.812 56.1885 112.812C56.1885 112.812 56.1885 112.812 56.1885 112.812C56.1885 112.812 56.1885 112.812 56.1885 112.812C56.1885 112.812 56.1885 112.812 56.1885 112.812C56.1885 112.812 56.1885 112.812 56.1885 112.812C56.1885 112.812 56.1885 112.812 56.1885 112.812C56.1885 112.812 56.1885 112.812 56.1885 112.812C56.1885 112.812 56.1885 112.812 56.1885 112.812C56.1885 112.812 56.1885 112.812 56.1885 112.812C56.1885 112.812 56.1885 112.812 56.1885 112.812C56.1885 112.812 56.1885 112.812 56.1885 112.812C56.1885 112.812 56.1885 112.812 56.1885 112.812C56.1885 112.812 56.1885 112.812 56.1885 112.812C56.1885 112.812 56.1885 112.812 56.1885 112.812C56.1885 112.812 56.1885 112.812 56.1885 112.812C56.1885 112.812 56.1884 112.812 56.1884 112.812C56.1884 112.812 56.1884 112.812 56.1884 112.812C56.1884 112.812 56.1884 112.812 56.1884 112.812C56.1884 112.812 56.1884 112.812 56.1884 112.812C56.1884 112.812 56.1884 112.812 56.1884 112.812C56.1884 112.812 56.1884 112.812 56.1884 112.812C56.1884 112.812 56.1884 112.812 56.1884 112.812C56.1884 112.812 56.1884 112.812 56.1884 112.812C56.1884 112.812 56.1884 112.812 56.1884 112.812C56.1884 112.812 56.1884 112.812 56.1884 112.812C56.1884 112.812 56.1884 112.812 56.1884 112.812C56.1884 112.812 56.1884 112.812 56.1884 112.812C56.1884 112.812 56.1884 112.812 56.1884 112.812C56.1884 112.812 56.1884 112.812 56.1884 112.812C56.1884 112.812 56.1884 112.812 56.1884 112.812C56.1884 112.812 56.1884 112.812 56.1884 112.812C56.1884 112.812 56.1884 112.812 56.1884 112.812C56.1884 112.812 56.1884 112.812 56.1884 112.812C56.1884 112.812 56.1884 112.812 56.1884 112.812C56.1884 112.812 56.1884 112.812 56.1884 112.812C56.1884 112.812 56.1884 112.812 56.1884 112.812C56.1884 112.812 56.1884 112.812 56.1884 112.812C56.1884 112.812 56.1884 112.812 56.1884 112.812C56.1884 112.812 56.1884 112.812 56.1884 112.812C56.1884 112.812 56.1884 112.812 56.1884 112.812C56.1884 112.812 56.1884 112.812 56.1884 112.812C56.1884 112.812 56.1884 112.812 56.1884 112.812C56.1884 112.812 56.1884 112.812 56.1884 112.812C56.1884 112.812 56.1884 112.812 56.1884 112.812C56.1884 112.812 56.1884 112.812 56.1884 112.812C56.1884 112.812 56.1884 112.812 56.1884 112.812C56.1884 112.812 56.1884 112.812 56.1884 112.812C56.1884 112.812 56.1884 112.812 56.1884 112.812C56.1884 112.812 56.1884 112.812 56.1884 112.812C56.1884 112.812 56.1884 112.812 56.1884 112.812C56.1884 112.812 56.1884 112.812 56.1884 112.812C56.1884 112.812 56.1884 112.812 56.1884 112.812C56.1884 112.812 56.1884 112.812 56.1884 112.812C56.1884 112.812 56.1884 112.812 56.1884 112.812C56.1884 112.812 56.1884 112.812 56.1884 112.812C56.1884 112.812 56.1884 112.812 56.1884 112.812C56.1884 112.812 56.1884 112.812 56.1884 112.812C56.1884 112.812 56.1884 112.812 56.1884 112.812C56.1884 112.812 56.1884 112.812 56.1884 112.812C56.1884 112.812 56.1884 112.812 56.1884 112.812C56.1884 112.812 56.1884 112.812 56.1884 112.812C56.1884 112.812 56.1884 112.812 56.1884 112.812C56.1884 112.812 56.1884 112.812 56.1884 112.812C56.1884 112.812 56.1884 112.812 56.1884 112.812C56.1884 112.812 56.1884 112.812 56.1884 112.812C56.1884 112.812 56.1884 112.812 56.1884 112.812C56.1884 112.812 56.1884 112.812 56.1884 112.812C56.1884 112.812 56.1884 112.812 56.1884 112.812C56.1884 112.812 56.1884 112.812 56.1884 112.812C56.1884 112.812 56.1884 112.812 56.1884 112.812C56.1884 112.812 56.1884 112.812 56.1884 112.812C56.1884 112.812 56.1884 112.812 56.1884 112.812C56.1884 112.812 56.1884 112.812 56.1884 112.812C56.1884 112.812 56.1884 112.812 56.1884 112.812C56.1884 112.812 56.1884 112.812 56.1884 112.812C56.1884 112.812 56.1884 112.812 56.1884 112.812C56.1884 112.812 56.1884 112.812 56.1884 112.812C56.1884 112.812 56.1884 112.812 56.1884 112.812C56.1884 112.812 56.1884 112.812 56.1884 112.812C56.1884 112.812 56.1884 112.812 56.1884 112.812C56.1884 112.812 56.1884 112.812 56.1884 112.812C56.1884 112.812 56.1884 112.812 56.1884 112.812C56.1884 112.812 56.1884 112.812 56.1884 112.812C56.1884 112.812 56.1884 112.812 56.1884 112.812C56.1884 112.812 56.1884 112.812 56.1884 112.812C56.1884 112.812 56.1884 112.812 56.1884 112.812C56.1884 112.812 56.1884 112.812 56.1884 112.812C56.1884 112.812 56.1884 112.812 56.1884 112.812C56.1884 112.812 56.1884 112.812 56.1884 112.812C56.1884 112.812 56.1884 112.812 56.1884 112.812C56.1884 112.812 56.1884 112.812 56.1884 112.812C56.1884 112.812 56.1884 112.812 56.1884 112.812C56.1884 112.812 56.1884 112.812 56.1884 112.812C56.1884 112.812 56.1884 112.812 56.1884 112.812C56.1884 112.812 56.1884 112.812 56.1884 112.812C56.1884 112.812 56.1884 112.812 56.1884 112.812C56.1884 112.812 56.1884 112.812 56.1884 112.812C56.1884 112.812 56.1884 112.812 56.1884 112.812C56.1884 112.812 56.1884 112.812 56.1884 112.812C56.1884 112.812 56.1884 112.812 56.1884 112.812C56.1884 112.812 56.1884 112.812 56.1884 112.812C56.1884 112.812 56.1884 112.812 56.1884 112.812C56.1884 112.812 56.1884 112.812 56.1884 112.812C56.1884 112.812 56.1884 112.812 56.1884 112.812C56.1884 112.812 56.1884 112.812 56.1884 112.812C56.1884 112.812 56.1884 112.812 56.1884 112.812C56.1884 112.812 56.1884 112.812 56.1884 112.812C56.1884 112.812 56.1884 112.812 56.1884 112.812C56.1883 112.812 56.1883 112.812 56.1883 112.812C56.1883 112.812 56.1883 112.812 56.1883 112.812C56.1883 112.812 56.1883 112.812 56.1883 112.812C56.1883 112.812 56.1883 112.812 56.1883 112.812C56.1883 112.812 56.1883 112.812 56.1883 112.812C56.1883 112.812 56.1883 112.812 56.1883 112.812C56.1883 112.812 56.1883 112.812 56.1883 112.812C56.1883 112.812 56.1883 112.812 56.1883 112.812C56.1883 112.812 56.1883 112.812 56.1883 112.812C56.1883 112.812 56.1883 112.812 56.1883 112.812C56.1883 112.812 56.1883 112.812 56.1883 112.812C56.1883 112.812 56.1883 112.812 56.1883 112.812C56.1883 112.812 56.1883 112.812 56.1883 112.812C56.1883 112.812 56.1883 112.812 56.1883 112.812C56.1883 112.812 56.1883 112.812 56.1883 112.812C56.1883 112.812 56.1883 112.812 56.1883 112.812C56.1883 112.812 56.1883 112.812 56.1883 112.812C56.1883 112.812 56.1883 112.812 56.1883 112.812C56.1883 112.812 56.1883 112.812 56.1883 112.812C56.1883 112.812 56.1883 112.812 56.1883 112.812C56.1883 112.812 56.1883 112.812 56.1883 112.812C56.1883 112.812 56.1883 112.812 56.1883 112.812C56.1883 112.812 56.1883 112.812 56.1883 112.812C56.1883 112.812 56.1883 112.812 56.1883 112.812C56.1883 112.812 56.1883 112.812 56.1883 112.812C56.1883 112.812 56.1883 112.812 56.1883 112.812C56.1883 112.812 56.1883 112.812 56.1883 112.812C56.1883 112.812 56.1883 112.812 56.1883 112.812C56.1883 112.812 56.1883 112.812 56.1883 112.812C56.1883 112.812 56.1883 112.812 56.1883 112.812C56.1883 112.812 56.1883 112.812 56.1883 112.812C56.1883 112.812 56.1883 112.812 56.1883 112.812C56.1883 112.812 56.1883 112.812 56.1883 112.812C56.1883 112.812 56.1883 112.812 56.1883 112.812C56.1883 112.812 56.1883 112.812 56.1883 112.812C56.1883 112.812 56.1883 112.812 56.1883 112.812C56.1883 112.812 56.1883 112.812 56.1883 112.812C56.1883 112.812 56.1883 112.812 56.1883 112.812C56.1883 112.812 56.1883 112.812 56.1883 112.812C56.1883 112.812 56.1883 112.812 56.1883 112.812C56.1883 112.812 56.1883 112.812 56.1883 112.812C56.1883 112.812 56.1883 112.812 56.1883 112.812C56.1883 112.812 56.1883 112.812 56.1883 112.812C56.1883 112.812 56.1883 112.812 56.1883 112.812C56.1883 112.812 56.1883 112.812 56.1883 112.812C56.1883 112.812 56.1883 112.812 56.1883 112.812C56.1883 112.812 56.1883 112.812 56.1883 112.812C56.1883 112.812 56.1883 112.812 56.1883 112.812C56.1883 112.812 56.1883 112.812 56.1883 112.812C56.1883 112.812 56.1883 112.812 56.1883 112.812C56.1883 112.812 56.1883 112.812 56.1883 112.812C56.1883 112.812 56.1883 112.812 56.1883 112.812C56.1883 112.812 56.1883 112.812 56.1883 112.812C56.1883 112.812 56.1883 112.812 56.1883 112.812C56.1883 112.812 56.1883 112.812 56.1883 112.812C56.1883 112.812 56.1883 112.812 56.1883 112.812C56.1883 112.812 56.1883 112.812 56.1883 112.812C56.1883 112.812 56.1883 112.812 56.1883 112.812C56.1883 112.812 56.1883 112.812 56.1883 112.812C56.1883 112.812 56.1883 112.812 56.1883 112.812C56.1883 112.812 56.1883 112.812 56.1883 112.812C56.1883 112.812 56.1883 112.812 56.1883 112.812C56.1883 112.812 56.1883 112.812 56.1883 112.812C56.1883 112.812 56.1883 112.812 56.1883 112.812C56.1883 112.812 56.1883 112.812 56.1883 112.812C56.1883 112.812 56.1883 112.812 56.1883 112.812C56.1883 112.812 56.1883 112.812 56.1883 112.812C56.1883 112.812 56.1883 112.812 56.1883 112.812C56.1883 112.812 56.1883 112.812 56.1883 112.812C56.1883 112.812 56.1883 112.812 56.1883 112.812C56.1883 112.812 56.1883 112.812 56.1883 112.812C56.1883 112.812 56.1883 112.812 56.1883 112.812C56.1883 112.812 56.1883 112.812 56.1883 112.812C56.1883 112.812 56.1883 112.812 56.1883 112.812C56.1883 112.812 56.1883 112.812 56.1883 112.812C56.1883 112.812 56.1883 112.812 56.1883 112.812C56.1883 112.812 56.1883 112.812 56.1883 112.812C56.1883 112.812 56.1883 112.812 56.1883 112.812C56.1883 112.812 56.1883 112.812 56.1883 112.812C56.1883 112.812 56.1883 112.812 56.1883 112.812C56.1883 112.812 56.1883 112.812 56.1883 112.812C56.1883 112.812 56.1883 112.812 56.1883 112.812C56.1883 112.812 56.1883 112.812 56.1883 112.812C56.1883 112.812 56.1883 112.812 56.1883 112.812C56.1883 112.812 56.1883 112.812 56.1883 112.812C56.1883 112.812 56.1883 112.812 56.1883 112.812C56.1883 112.812 56.1883 112.812 56.1883 112.812C56.1883 112.812 56.1883 112.812 56.1883 112.812C56.1883 112.812 56.1883 112.812 56.1883 112.812C56.1883 112.812 56.1883 112.812 56.1883 112.812C56.1883 112.812 56.1883 112.812 56.1883 112.812C56.1883 112.812 56.1883 112.812 56.1883 112.812C56.1883 112.812 56.1883 112.812 56.1882 112.812C56.1882 112.812 56.1882 112.812 56.1882 112.812C56.1882 112.812 56.1882 112.812 56.1882 112.812C56.1882 112.812 56.1882 112.812 56.1882 112.812C56.1882 112.812 56.1882 112.812 56.1882 112.812C56.1882 112.812 56.1882 112.812 56.1882 112.812C56.1882 112.812 56.1882 112.812 56.1882 112.812C56.1882 112.812 56.1882 112.812 56.1882 112.812C56.1882 112.812 56.1882 112.812 56.1882 112.812C56.1882 112.812 56.1882 112.812 56.1882 112.812C56.1882 112.812 56.1882 112.812 56.1882 112.812C56.1882 112.812 56.1882 112.812 56.1882 112.812C56.1882 112.812 56.1882 112.812 56.1882 112.812C56.1882 112.812 56.1882 112.812 56.1882 112.812C56.1882 112.812 56.1882 112.812 56.1882 112.812C56.1882 112.812 56.1882 112.812 56.1882 112.812C56.1882 112.812 56.1882 112.812 56.1882 112.812C56.1882 112.812 56.1882 112.812 56.1882 112.812C56.1882 112.812 56.1882 112.812 56.1882 112.812C56.1882 112.812 56.1882 112.812 56.1882 112.812C56.1882 112.812 56.1882 112.812 56.1882 112.812C56.1882 112.812 56.1882 112.812 56.1882 112.812C56.1882 112.812 56.1882 112.812 56.1882 112.812C56.1882 112.812 56.1882 112.812 56.1882 112.812C56.1882 112.812 56.1882 112.812 56.1882 112.812C56.1882 112.812 56.1882 112.812 56.1882 112.812C56.1882 112.812 56.1882 112.812 56.1882 112.812C56.1882 112.812 56.1882 112.812 56.1882 112.812C56.1882 112.812 56.1882 112.812 56.1882 112.812C56.1882 112.812 56.1882 112.812 56.1882 112.812C56.1882 112.812 56.1882 112.812 56.1882 112.812C56.1882 112.812 56.1882 112.812 56.1882 112.812C56.1882 112.812 56.1882 112.812 56.1882 112.812C56.1882 112.812 56.1882 112.812 56.1882 112.812C56.1882 112.812 56.1882 112.812 56.1882 112.812C56.1882 112.812 56.1882 112.812 56.1882 112.812C56.1882 112.812 56.1882 112.812 56.1882 112.812C56.1882 112.812 56.1882 112.812 56.1882 112.812C56.1882 112.812 56.1882 112.812 56.1882 112.812C56.1882 112.812 56.1882 112.812 56.1882 112.812C56.1882 112.812 56.1882 112.812 56.1882 112.812C56.1882 112.812 56.1882 112.812 56.1882 112.812C56.1882 112.812 56.1882 112.812 56.1882 112.812C56.1882 112.812 56.1882 112.812 56.1882 112.812C56.1882 112.812 56.1882 112.812 56.1882 112.812C56.1882 112.812 56.1882 112.812 56.1882 112.812C56.1882 112.812 56.1882 112.812 56.1882 112.812C56.1882 112.812 56.1882 112.812 56.1882 112.812C56.1882 112.812 56.1882 112.812 56.1882 112.812C56.1882 112.812 56.1882 112.812 56.1882 112.812C56.1882 112.812 56.1882 112.812 56.1882 112.812C56.1882 112.812 56.1882 112.812 56.1882 112.812C56.1882 112.812 56.1882 112.812 56.1882 112.812C56.1882 112.812 56.1882 112.812 56.1882 112.812C56.1882 112.812 56.1882 112.812 56.1882 112.812C56.1882 112.812 56.1882 112.812 56.1882 112.812C56.1882 112.812 56.1882 112.812 56.1882 112.812C56.1882 112.812 56.1882 112.812 56.1882 112.812C56.1882 112.812 56.1882 112.812 56.1882 112.812C56.1882 112.812 56.1882 112.812 56.1882 112.812C56.1882 112.812 56.1882 112.812 56.1882 112.812C56.1882 112.812 56.1882 112.812 56.1882 112.812C56.1882 112.812 56.1882 112.812 56.1882 112.812C56.1882 112.812 56.1882 112.812 56.1882 112.812C56.1882 112.812 56.1882 112.812 56.1882 112.812C56.1882 112.812 56.1882 112.812 56.1882 112.812C56.1882 112.812 56.1882 112.812 56.1882 112.812C56.1882 112.812 56.1882 112.812 56.1882 112.812C56.1882 112.812 56.1882 112.812 56.1882 112.812C56.1882 112.812 56.1882 112.812 56.1882 112.812C56.1882 112.812 56.1882 112.812 56.1882 112.812C56.1882 112.812 56.1882 112.812 56.1882 112.812C56.1882 112.812 56.1882 112.812 56.1882 112.812C56.1882 112.812 56.1882 112.812 56.1882 112.812C56.1882 112.812 56.1882 112.812 56.1882 112.812C56.1882 112.812 56.1882 112.812 56.1882 112.812C56.1882 112.812 56.1882 112.812 56.1882 112.812C56.1882 112.812 56.1882 112.812 56.1882 112.812C56.1882 112.812 56.1882 112.812 56.1882 112.812C56.1882 112.812 56.1882 112.812 56.1882 112.812C56.1882 112.812 56.1882 112.812 56.1882 112.812C56.1882 112.812 56.1882 112.812 56.1882 112.812C56.1882 112.812 56.1882 112.812 56.1882 112.812C56.1882 112.812 56.1882 112.812 56.1882 112.812C56.1882 112.812 56.1882 112.812 56.1882 112.812C56.1882 112.812 56.1882 112.812 56.1882 112.812C56.1882 112.812 56.1882 112.812 56.1882 112.812C56.1882 112.812 56.1882 112.812 56.1882 112.812C56.1882 112.812 56.1882 112.812 56.1882 112.812C56.1882 112.812 56.1882 112.812 56.1882 112.812C56.1882 112.812 56.1882 112.812 56.1882 112.812C56.1882 112.812 56.1882 112.812 56.1882 112.812C56.1882 112.812 56.1882 112.812 56.1882 112.812C56.1881 112.812 56.1881 112.812 56.1881 112.812C56.1881 112.812 56.1881 112.812 56.1881 112.812C56.1881 112.812 56.1881 112.812 56.1881 112.812C56.1881 112.812 56.1881 112.812 56.1881 112.812C56.1881 112.812 56.1881 112.812 56.1881 112.812C56.1881 112.812 56.1881 112.812 56.1881 112.812C56.1881 112.812 56.1881 112.812 56.1881 112.812C56.1881 112.812 56.1881 112.812 56.1881 112.812C56.1881 112.812 56.1881 112.812 56.1881 112.812C56.1881 112.812 56.1881 112.812 56.1881 112.812C56.1881 112.812 56.1881 112.812 56.1881 112.812C56.1881 112.812 56.1881 112.812 56.1881 112.812C56.1881 112.812 56.1881 112.812 56.1881 112.812C56.1881 112.812 56.1881 112.812 56.1881 112.812C56.1881 112.812 56.1881 112.812 56.1881 112.812C56.1881 112.812 56.1881 112.812 56.1881 112.812C56.1881 112.812 56.1881 112.812 56.1881 112.812C56.1881 112.812 56.1881 112.812 56.1881 112.812C56.1881 112.812 56.1881 112.812 56.1881 112.812C56.1881 112.812 56.1881 112.812 56.1881 112.812C56.1881 112.812 56.1881 112.812 56.1881 112.812C56.1881 112.812 56.1881 112.812 56.1881 112.812C56.1881 112.812 56.1881 112.812 56.1881 112.812C56.1881 112.812 56.1881 112.812 56.1881 112.812C56.1881 112.812 56.1881 112.812 56.1881 112.812C56.1881 112.812 56.1881 112.812 56.1881 112.812C56.1881 112.812 56.1881 112.812 56.1881 112.812C56.1881 112.812 56.1881 112.812 56.1881 112.812C56.1881 112.812 56.1881 112.812 56.1881 112.812C56.1881 112.812 56.1881 112.812 56.1881 112.812C56.1881 112.812 56.1881 112.812 56.1881 112.812C56.1881 112.812 56.1881 112.812 56.1881 112.812C56.1881 112.812 56.1881 112.812 56.1881 112.812C56.1881 112.812 56.1881 112.812 56.1881 112.812C56.1881 112.812 56.1881 112.812 56.1881 112.812C56.1881 112.812 56.1881 112.812 56.1881 112.812C56.1881 112.812 56.1881 112.812 56.1881 112.812C56.1881 112.812 56.1881 112.812 56.1881 112.812C56.1881 112.812 56.1881 112.812 56.1881 112.812C56.1881 112.812 56.1881 112.812 56.1881 112.812C56.1881 112.812 56.1881 112.812 56.1881 112.812C56.1881 112.812 56.1881 112.812 56.1881 112.812C56.1881 112.812 56.1881 112.812 56.1881 112.812C56.1881 112.812 56.1881 112.812 56.1881 112.812C56.1881 112.812 56.1881 112.812 56.1881 112.812C56.1881 112.812 56.1881 112.812 56.1881 112.812C56.1881 112.812 56.1881 112.812 56.1881 112.812C56.1881 112.812 56.1881 112.812 56.1881 112.812C56.1881 112.812 56.1881 112.812 56.1881 112.812C56.1881 112.812 56.1881 112.812 56.1881 112.812C56.1881 112.812 56.1881 112.812 56.1881 112.812C56.1881 112.812 56.1881 112.812 56.1881 112.812C56.1881 112.812 56.1881 112.812 56.1881 112.812C56.1881 112.812 56.1881 112.812 56.1881 112.812C56.1881 112.812 56.1881 112.812 56.1881 112.812C56.1881 112.812 56.1881 112.812 56.1881 112.812C56.1881 112.812 56.1881 112.812 56.1881 112.812C56.1881 112.812 56.1881 112.812 56.1881 112.812C56.1881 112.812 56.1881 112.812 56.1881 112.812C56.1881 112.812 56.1881 112.812 56.1881 112.812C56.1881 112.812 56.1881 112.812 56.1881 112.812C56.1881 112.812 56.1881 112.812 56.1881 112.812C56.1881 112.812 56.1881 112.812 56.1881 112.812C56.1881 112.812 56.1881 112.812 56.1881 112.812C56.1881 112.812 56.1881 112.812 56.1881 112.812C56.1881 112.812 56.1881 112.812 56.1881 112.812C56.1881 112.812 56.1881 112.812 56.1881 112.812C56.1881 112.812 56.1881 112.812 56.1881 112.812C56.1881 112.812 56.1881 112.812 56.1881 112.812C56.1881 112.812 56.1881 112.812 56.1881 112.812C56.1881 112.812 56.1881 112.812 56.1881 112.812C56.1881 112.812 56.1881 112.812 56.1881 112.812C56.1881 112.812 56.1881 112.812 56.1881 112.812C56.1881 112.812 56.1881 112.812 56.1881 112.812C56.1881 112.812 56.1881 112.812 56.1881 112.812C56.1881 112.812 56.1881 112.812 56.1881 112.812C56.1881 112.812 56.1881 112.812 56.1881 112.812C56.1881 112.812 56.1881 112.812 56.1881 112.812C56.1881 112.812 56.1881 112.812 56.1881 112.812C56.1881 112.812 56.1881 112.812 56.1881 112.812C56.1881 112.812 56.1881 112.812 56.1881 112.812C56.1881 112.812 56.1881 112.812 56.1881 112.812C56.1881 112.812 56.1881 112.812 56.1881 112.812C56.1881 112.812 56.1881 112.812 56.1881 112.812C56.1881 112.812 56.1881 112.812 56.1881 112.812C56.1881 112.812 56.1881 112.812 56.1881 112.812C56.1881 112.812 56.1881 112.812 56.1881 112.812C56.1881 112.812 56.1881 112.812 56.1881 112.812C56.1881 112.812 56.1881 112.812 56.1881 112.812C56.1881 112.812 56.1881 112.812 56.1881 112.812C56.1881 112.812 56.1881 112.812 56.1881 112.812C56.1881 112.812 56.1881 112.812 56.1881 112.812C56.1881 112.812 56.1881 112.812 56.188 112.812C56.188 112.812 56.188 112.812 56.188 112.812C56.188 112.812 56.188 112.812 56.188 112.812C56.188 112.812 56.188 112.812 56.188 112.812C56.188 112.812 56.188 112.812 56.188 112.812C56.188 112.812 56.188 112.812 56.188 112.812C56.188 112.812 56.188 112.812 56.188 112.812C56.188 112.812 56.188 112.812 56.188 112.812C56.188 112.812 56.188 112.812 56.188 112.812C56.188 112.812 56.188 112.812 56.188 112.812C56.188 112.812 56.188 112.812 56.188 112.812C56.188 112.812 56.188 112.812 56.188 112.812C56.188 112.812 56.188 112.812 56.188 112.812C56.188 112.812 56.188 112.812 56.188 112.812C56.188 112.812 56.188 112.812 56.188 112.812C56.188 112.812 56.188 112.812 56.188 112.812C56.188 112.812 56.188 112.812 56.188 112.812C56.188 112.812 56.188 112.812 56.188 112.812C56.188 112.812 56.188 112.812 56.188 112.812C56.188 112.812 56.188 112.812 56.188 112.812C56.188 112.812 56.188 112.812 56.188 112.812C56.188 112.812 56.188 112.812 56.188 112.812C56.188 112.812 56.188 112.812 56.188 112.812C56.188 112.812 56.188 112.812 56.188 112.812C56.188 112.812 56.188 112.812 56.188 112.812C56.188 112.812 56.188 112.812 56.188 112.812C56.188 112.812 56.188 112.812 56.188 112.812C56.188 112.812 56.188 112.812 56.188 112.812C56.188 112.812 56.188 112.812 56.188 112.812C56.188 112.812 56.188 112.812 56.188 112.812C56.188 112.812 56.188 112.812 56.188 112.812C56.188 112.812 56.188 112.812 56.188 112.812C56.188 112.812 56.188 112.812 56.188 112.812C56.188 112.812 56.188 112.812 56.188 112.812C56.188 112.812 56.188 112.812 56.188 112.812C56.188 112.812 56.188 112.812 56.188 112.812C56.188 112.812 56.188 112.812 56.188 112.812C56.188 112.812 56.188 112.812 56.188 112.812C56.188 112.812 56.188 112.812 56.188 112.812C56.188 112.812 56.188 112.812 56.188 112.812C56.188 112.812 56.188 112.812 56.188 112.812C56.188 112.812 56.188 112.812 56.188 112.812C56.188 112.812 56.188 112.812 56.188 112.812C56.188 112.812 56.188 112.812 56.188 112.812C56.188 112.812 56.188 112.812 56.188 112.812C56.188 112.812 56.188 112.812 56.188 112.812C56.188 112.812 56.188 112.812 56.188 112.812C56.188 112.812 56.188 112.812 56.188 112.812C56.188 112.812 56.188 112.812 56.188 112.812C56.188 112.812 56.188 112.812 56.188 112.812C56.188 112.812 56.188 112.812 56.188 112.812C56.188 112.812 56.188 112.812 56.188 112.812C56.188 112.812 56.188 112.812 56.188 112.812C56.188 112.812 56.188 112.812 56.188 112.812C56.188 112.812 56.188 112.812 56.188 112.812C56.188 112.812 56.188 112.812 56.188 112.812C56.188 112.812 56.188 112.812 56.188 112.812C56.188 112.812 56.188 112.812 56.188 112.812V114.812C56.188 114.812 56.188 114.812 56.188 114.812C56.188 114.812 56.188 114.812 56.188 114.812C56.188 114.812 56.188 114.812 56.188 114.812C56.188 114.812 56.188 114.812 56.188 114.812C56.188 114.812 56.188 114.812 56.188 114.812C56.188 114.812 56.188 114.812 56.188 114.812C56.188 114.812 56.188 114.812 56.188 114.812C56.188 114.812 56.188 114.812 56.188 114.812C56.188 114.812 56.188 114.812 56.188 114.812C56.188 114.812 56.188 114.812 56.188 114.812C56.188 114.812 56.188 114.812 56.188 114.812C56.188 114.812 56.188 114.812 56.188 114.812C56.188 114.812 56.188 114.812 56.188 114.812C56.188 114.812 56.188 114.812 56.188 114.812C56.188 114.812 56.188 114.812 56.188 114.812C56.188 114.812 56.188 114.812 56.188 114.812C56.188 114.812 56.188 114.812 56.188 114.812C56.188 114.812 56.188 114.812 56.188 114.812C56.188 114.812 56.188 114.812 56.188 114.812C56.188 114.812 56.188 114.812 56.188 114.812C56.188 114.812 56.188 114.812 56.188 114.812C56.188 114.812 56.188 114.812 56.188 114.812C56.188 114.812 56.188 114.812 56.188 114.812C56.188 114.812 56.188 114.812 56.188 114.812C56.188 114.812 56.188 114.812 56.188 114.812C56.188 114.812 56.188 114.812 56.188 114.812C56.188 114.812 56.188 114.812 56.188 114.812C56.188 114.812 56.188 114.812 56.188 114.812C56.188 114.812 56.188 114.812 56.188 114.812C56.188 114.812 56.188 114.812 56.188 114.812C56.188 114.812 56.188 114.812 56.188 114.812C56.188 114.812 56.188 114.812 56.188 114.812C56.188 114.812 56.188 114.812 56.188 114.812C56.188 114.812 56.188 114.812 56.188 114.812C56.188 114.812 56.188 114.812 56.188 114.812C56.188 114.812 56.188 114.812 56.188 114.812C56.188 114.812 56.188 114.812 56.188 114.812C56.188 114.812 56.188 114.812 56.188 114.812C56.188 114.812 56.188 114.812 56.188 114.812C56.188 114.812 56.188 114.812 56.188 114.812C56.188 114.812 56.188 114.812 56.188 114.812C56.188 114.812 56.188 114.812 56.188 114.812C56.188 114.812 56.188 114.812 56.188 114.812C56.188 114.812 56.188 114.812 56.188 114.812C56.188 114.812 56.188 114.812 56.188 114.812C56.188 114.812 56.188 114.812 56.188 114.812C56.188 114.812 56.188 114.812 56.188 114.812C56.188 114.812 56.188 114.812 56.188 114.812C56.188 114.812 56.188 114.812 56.188 114.812C56.188 114.812 56.188 114.812 56.188 114.812C56.188 114.812 56.188 114.812 56.188 114.812C56.188 114.812 56.188 114.812 56.188 114.812C56.188 114.812 56.188 114.812 56.188 114.812C56.188 114.812 56.188 114.812 56.188 114.812C56.188 114.812 56.188 114.812 56.188 114.812C56.188 114.812 56.188 114.812 56.188 114.812C56.188 114.812 56.188 114.812 56.188 114.812C56.1881 114.812 56.1881 114.812 56.1881 114.812C56.1881 114.812 56.1881 114.812 56.1881 114.812C56.1881 114.812 56.1881 114.812 56.1881 114.812C56.1881 114.812 56.1881 114.812 56.1881 114.812C56.1881 114.812 56.1881 114.812 56.1881 114.812C56.1881 114.812 56.1881 114.812 56.1881 114.812C56.1881 114.812 56.1881 114.812 56.1881 114.812C56.1881 114.812 56.1881 114.812 56.1881 114.812C56.1881 114.812 56.1881 114.812 56.1881 114.812C56.1881 114.812 56.1881 114.812 56.1881 114.812C56.1881 114.812 56.1881 114.812 56.1881 114.812C56.1881 114.812 56.1881 114.812 56.1881 114.812C56.1881 114.812 56.1881 114.812 56.1881 114.812C56.1881 114.812 56.1881 114.812 56.1881 114.812C56.1881 114.812 56.1881 114.812 56.1881 114.812C56.1881 114.812 56.1881 114.812 56.1881 114.812C56.1881 114.812 56.1881 114.812 56.1881 114.812C56.1881 114.812 56.1881 114.812 56.1881 114.812C56.1881 114.812 56.1881 114.812 56.1881 114.812C56.1881 114.812 56.1881 114.812 56.1881 114.812C56.1881 114.812 56.1881 114.812 56.1881 114.812C56.1881 114.812 56.1881 114.812 56.1881 114.812C56.1881 114.812 56.1881 114.812 56.1881 114.812C56.1881 114.812 56.1881 114.812 56.1881 114.812C56.1881 114.812 56.1881 114.812 56.1881 114.812C56.1881 114.812 56.1881 114.812 56.1881 114.812C56.1881 114.812 56.1881 114.812 56.1881 114.812C56.1881 114.812 56.1881 114.812 56.1881 114.812C56.1881 114.812 56.1881 114.812 56.1881 114.812C56.1881 114.812 56.1881 114.812 56.1881 114.812C56.1881 114.812 56.1881 114.812 56.1881 114.812C56.1881 114.812 56.1881 114.812 56.1881 114.812C56.1881 114.812 56.1881 114.812 56.1881 114.812C56.1881 114.812 56.1881 114.812 56.1881 114.812C56.1881 114.812 56.1881 114.812 56.1881 114.812C56.1881 114.812 56.1881 114.812 56.1881 114.812C56.1881 114.812 56.1881 114.812 56.1881 114.812C56.1881 114.812 56.1881 114.812 56.1881 114.812C56.1881 114.812 56.1881 114.812 56.1881 114.812C56.1881 114.812 56.1881 114.812 56.1881 114.812C56.1881 114.812 56.1881 114.812 56.1881 114.812C56.1881 114.812 56.1881 114.812 56.1881 114.812C56.1881 114.812 56.1881 114.812 56.1881 114.812C56.1881 114.812 56.1881 114.812 56.1881 114.812C56.1881 114.812 56.1881 114.812 56.1881 114.812C56.1881 114.812 56.1881 114.812 56.1881 114.812C56.1881 114.812 56.1881 114.812 56.1881 114.812C56.1881 114.812 56.1881 114.812 56.1881 114.812C56.1881 114.812 56.1881 114.812 56.1881 114.812C56.1881 114.812 56.1881 114.812 56.1881 114.812C56.1881 114.812 56.1881 114.812 56.1881 114.812C56.1881 114.812 56.1881 114.812 56.1881 114.812C56.1881 114.812 56.1881 114.812 56.1881 114.812C56.1881 114.812 56.1881 114.812 56.1881 114.812C56.1881 114.812 56.1881 114.812 56.1881 114.812C56.1881 114.812 56.1881 114.812 56.1881 114.812C56.1881 114.812 56.1881 114.812 56.1881 114.812C56.1881 114.812 56.1881 114.812 56.1881 114.812C56.1881 114.812 56.1881 114.812 56.1881 114.812C56.1881 114.812 56.1881 114.812 56.1881 114.812C56.1881 114.812 56.1881 114.812 56.1881 114.812C56.1881 114.812 56.1881 114.812 56.1881 114.812C56.1881 114.812 56.1881 114.812 56.1881 114.812C56.1881 114.812 56.1881 114.812 56.1881 114.812C56.1881 114.812 56.1881 114.812 56.1881 114.812C56.1881 114.812 56.1881 114.812 56.1881 114.812C56.1881 114.812 56.1881 114.812 56.1881 114.812C56.1881 114.812 56.1881 114.812 56.1881 114.812C56.1881 114.812 56.1881 114.812 56.1881 114.812C56.1881 114.812 56.1881 114.812 56.1881 114.812C56.1881 114.812 56.1881 114.812 56.1881 114.812C56.1881 114.812 56.1881 114.812 56.1881 114.812C56.1881 114.812 56.1881 114.812 56.1881 114.812C56.1881 114.812 56.1881 114.812 56.1881 114.812C56.1881 114.812 56.1881 114.812 56.1881 114.812C56.1881 114.812 56.1881 114.812 56.1881 114.812C56.1881 114.812 56.1881 114.812 56.1881 114.812C56.1881 114.812 56.1881 114.812 56.1881 114.812C56.1881 114.812 56.1881 114.812 56.1881 114.812C56.1881 114.812 56.1881 114.812 56.1881 114.812C56.1881 114.812 56.1881 114.812 56.1881 114.812C56.1881 114.812 56.1881 114.812 56.1881 114.812C56.1881 114.812 56.1881 114.812 56.1881 114.812C56.1881 114.812 56.1881 114.812 56.1881 114.812C56.1881 114.812 56.1881 114.812 56.1881 114.812C56.1881 114.812 56.1881 114.812 56.1881 114.812C56.1881 114.812 56.1881 114.812 56.1881 114.812C56.1881 114.812 56.1881 114.812 56.1881 114.812C56.1881 114.812 56.1881 114.812 56.1881 114.812C56.1881 114.812 56.1881 114.812 56.1881 114.812C56.1881 114.812 56.1881 114.812 56.1881 114.812C56.1881 114.812 56.1881 114.812 56.1881 114.812C56.1881 114.812 56.1881 114.812 56.1882 114.812C56.1882 114.812 56.1882 114.812 56.1882 114.812C56.1882 114.812 56.1882 114.812 56.1882 114.812C56.1882 114.812 56.1882 114.812 56.1882 114.812C56.1882 114.812 56.1882 114.812 56.1882 114.812C56.1882 114.812 56.1882 114.812 56.1882 114.812C56.1882 114.812 56.1882 114.812 56.1882 114.812C56.1882 114.812 56.1882 114.812 56.1882 114.812C56.1882 114.812 56.1882 114.812 56.1882 114.812C56.1882 114.812 56.1882 114.812 56.1882 114.812C56.1882 114.812 56.1882 114.812 56.1882 114.812C56.1882 114.812 56.1882 114.812 56.1882 114.812C56.1882 114.812 56.1882 114.812 56.1882 114.812C56.1882 114.812 56.1882 114.812 56.1882 114.812C56.1882 114.812 56.1882 114.812 56.1882 114.812C56.1882 114.812 56.1882 114.812 56.1882 114.812C56.1882 114.812 56.1882 114.812 56.1882 114.812C56.1882 114.812 56.1882 114.812 56.1882 114.812C56.1882 114.812 56.1882 114.812 56.1882 114.812C56.1882 114.812 56.1882 114.812 56.1882 114.812C56.1882 114.812 56.1882 114.812 56.1882 114.812C56.1882 114.812 56.1882 114.812 56.1882 114.812C56.1882 114.812 56.1882 114.812 56.1882 114.812C56.1882 114.812 56.1882 114.812 56.1882 114.812C56.1882 114.812 56.1882 114.812 56.1882 114.812C56.1882 114.812 56.1882 114.812 56.1882 114.812C56.1882 114.812 56.1882 114.812 56.1882 114.812C56.1882 114.812 56.1882 114.812 56.1882 114.812C56.1882 114.812 56.1882 114.812 56.1882 114.812C56.1882 114.812 56.1882 114.812 56.1882 114.812C56.1882 114.812 56.1882 114.812 56.1882 114.812C56.1882 114.812 56.1882 114.812 56.1882 114.812C56.1882 114.812 56.1882 114.812 56.1882 114.812C56.1882 114.812 56.1882 114.812 56.1882 114.812C56.1882 114.812 56.1882 114.812 56.1882 114.812C56.1882 114.812 56.1882 114.812 56.1882 114.812C56.1882 114.812 56.1882 114.812 56.1882 114.812C56.1882 114.812 56.1882 114.812 56.1882 114.812C56.1882 114.812 56.1882 114.812 56.1882 114.812C56.1882 114.812 56.1882 114.812 56.1882 114.812C56.1882 114.812 56.1882 114.812 56.1882 114.812C56.1882 114.812 56.1882 114.812 56.1882 114.812C56.1882 114.812 56.1882 114.812 56.1882 114.812C56.1882 114.812 56.1882 114.812 56.1882 114.812C56.1882 114.812 56.1882 114.812 56.1882 114.812C56.1882 114.812 56.1882 114.812 56.1882 114.812C56.1882 114.812 56.1882 114.812 56.1882 114.812C56.1882 114.812 56.1882 114.812 56.1882 114.812C56.1882 114.812 56.1882 114.812 56.1882 114.812C56.1882 114.812 56.1882 114.812 56.1882 114.812C56.1882 114.812 56.1882 114.812 56.1882 114.812C56.1882 114.812 56.1882 114.812 56.1882 114.812C56.1882 114.812 56.1882 114.812 56.1882 114.812C56.1882 114.812 56.1882 114.812 56.1882 114.812C56.1882 114.812 56.1882 114.812 56.1882 114.812C56.1882 114.812 56.1882 114.812 56.1882 114.812C56.1882 114.812 56.1882 114.812 56.1882 114.812C56.1882 114.812 56.1882 114.812 56.1882 114.812C56.1882 114.812 56.1882 114.812 56.1882 114.812C56.1882 114.812 56.1882 114.812 56.1882 114.812C56.1882 114.812 56.1882 114.812 56.1882 114.812C56.1882 114.812 56.1882 114.812 56.1882 114.812C56.1882 114.812 56.1882 114.812 56.1882 114.812C56.1882 114.812 56.1882 114.812 56.1882 114.812C56.1882 114.812 56.1882 114.812 56.1882 114.812C56.1882 114.812 56.1882 114.812 56.1882 114.812C56.1882 114.812 56.1882 114.812 56.1882 114.812C56.1882 114.812 56.1882 114.812 56.1882 114.812C56.1882 114.812 56.1882 114.812 56.1882 114.812C56.1882 114.812 56.1882 114.812 56.1882 114.812C56.1882 114.812 56.1882 114.812 56.1882 114.812C56.1882 114.812 56.1882 114.812 56.1882 114.812C56.1882 114.812 56.1882 114.812 56.1882 114.812C56.1882 114.812 56.1882 114.812 56.1882 114.812C56.1882 114.812 56.1882 114.812 56.1882 114.812C56.1882 114.812 56.1882 114.812 56.1882 114.812C56.1882 114.812 56.1882 114.812 56.1882 114.812C56.1882 114.812 56.1882 114.812 56.1882 114.812C56.1882 114.812 56.1882 114.812 56.1882 114.812C56.1882 114.812 56.1882 114.812 56.1882 114.812C56.1882 114.812 56.1882 114.812 56.1882 114.812C56.1882 114.812 56.1882 114.812 56.1882 114.812C56.1882 114.812 56.1882 114.812 56.1882 114.812C56.1882 114.812 56.1882 114.812 56.1882 114.812C56.1882 114.812 56.1882 114.812 56.1882 114.812C56.1882 114.812 56.1882 114.812 56.1882 114.812C56.1882 114.812 56.1882 114.812 56.1882 114.812C56.1882 114.812 56.1882 114.812 56.1882 114.812C56.1882 114.812 56.1882 114.812 56.1882 114.812C56.1882 114.812 56.1882 114.812 56.1882 114.812C56.1882 114.812 56.1882 114.812 56.1882 114.812C56.1882 114.812 56.1882 114.812 56.1882 114.812C56.1882 114.812 56.1882 114.812 56.1882 114.812C56.1883 114.812 56.1883 114.812 56.1883 114.812C56.1883 114.812 56.1883 114.812 56.1883 114.812C56.1883 114.812 56.1883 114.812 56.1883 114.812C56.1883 114.812 56.1883 114.812 56.1883 114.812C56.1883 114.812 56.1883 114.812 56.1883 114.812C56.1883 114.812 56.1883 114.812 56.1883 114.812C56.1883 114.812 56.1883 114.812 56.1883 114.812C56.1883 114.812 56.1883 114.812 56.1883 114.812C56.1883 114.812 56.1883 114.812 56.1883 114.812C56.1883 114.812 56.1883 114.812 56.1883 114.812C56.1883 114.812 56.1883 114.812 56.1883 114.812C56.1883 114.812 56.1883 114.812 56.1883 114.812C56.1883 114.812 56.1883 114.812 56.1883 114.812C56.1883 114.812 56.1883 114.812 56.1883 114.812C56.1883 114.812 56.1883 114.812 56.1883 114.812C56.1883 114.812 56.1883 114.812 56.1883 114.812C56.1883 114.812 56.1883 114.812 56.1883 114.812C56.1883 114.812 56.1883 114.812 56.1883 114.812C56.1883 114.812 56.1883 114.812 56.1883 114.812C56.1883 114.812 56.1883 114.812 56.1883 114.812C56.1883 114.812 56.1883 114.812 56.1883 114.812C56.1883 114.812 56.1883 114.812 56.1883 114.812C56.1883 114.812 56.1883 114.812 56.1883 114.812C56.1883 114.812 56.1883 114.812 56.1883 114.812C56.1883 114.812 56.1883 114.812 56.1883 114.812C56.1883 114.812 56.1883 114.812 56.1883 114.812C56.1883 114.812 56.1883 114.812 56.1883 114.812C56.1883 114.812 56.1883 114.812 56.1883 114.812C56.1883 114.812 56.1883 114.812 56.1883 114.812C56.1883 114.812 56.1883 114.812 56.1883 114.812C56.1883 114.812 56.1883 114.812 56.1883 114.812C56.1883 114.812 56.1883 114.812 56.1883 114.812C56.1883 114.812 56.1883 114.812 56.1883 114.812C56.1883 114.812 56.1883 114.812 56.1883 114.812C56.1883 114.812 56.1883 114.812 56.1883 114.812C56.1883 114.812 56.1883 114.812 56.1883 114.812C56.1883 114.812 56.1883 114.812 56.1883 114.812C56.1883 114.812 56.1883 114.812 56.1883 114.812C56.1883 114.812 56.1883 114.812 56.1883 114.812C56.1883 114.812 56.1883 114.812 56.1883 114.812C56.1883 114.812 56.1883 114.812 56.1883 114.812C56.1883 114.812 56.1883 114.812 56.1883 114.812C56.1883 114.812 56.1883 114.812 56.1883 114.812C56.1883 114.812 56.1883 114.812 56.1883 114.812C56.1883 114.812 56.1883 114.812 56.1883 114.812C56.1883 114.812 56.1883 114.812 56.1883 114.812C56.1883 114.812 56.1883 114.812 56.1883 114.812C56.1883 114.812 56.1883 114.812 56.1883 114.812C56.1883 114.812 56.1883 114.812 56.1883 114.812C56.1883 114.812 56.1883 114.812 56.1883 114.812C56.1883 114.812 56.1883 114.812 56.1883 114.812C56.1883 114.812 56.1883 114.812 56.1883 114.812C56.1883 114.812 56.1883 114.812 56.1883 114.812C56.1883 114.812 56.1883 114.812 56.1883 114.812C56.1883 114.812 56.1883 114.812 56.1883 114.812C56.1883 114.812 56.1883 114.812 56.1883 114.812C56.1883 114.812 56.1883 114.812 56.1883 114.812C56.1883 114.812 56.1883 114.812 56.1883 114.812C56.1883 114.812 56.1883 114.812 56.1883 114.812C56.1883 114.812 56.1883 114.812 56.1883 114.812C56.1883 114.812 56.1883 114.812 56.1883 114.812C56.1883 114.812 56.1883 114.812 56.1883 114.812C56.1883 114.812 56.1883 114.812 56.1883 114.812C56.1883 114.812 56.1883 114.812 56.1883 114.812C56.1883 114.812 56.1883 114.812 56.1883 114.812C56.1883 114.812 56.1883 114.812 56.1883 114.812C56.1883 114.812 56.1883 114.812 56.1883 114.812C56.1883 114.812 56.1883 114.812 56.1883 114.812C56.1883 114.812 56.1883 114.812 56.1883 114.812C56.1883 114.812 56.1883 114.812 56.1883 114.812C56.1883 114.812 56.1883 114.812 56.1883 114.812C56.1883 114.812 56.1883 114.812 56.1883 114.812C56.1883 114.812 56.1883 114.812 56.1883 114.812C56.1883 114.812 56.1883 114.812 56.1883 114.812C56.1883 114.812 56.1883 114.812 56.1883 114.812C56.1883 114.812 56.1883 114.812 56.1883 114.812C56.1883 114.812 56.1883 114.812 56.1883 114.812C56.1883 114.812 56.1883 114.812 56.1883 114.812C56.1883 114.812 56.1883 114.812 56.1883 114.812C56.1883 114.812 56.1883 114.812 56.1883 114.812C56.1883 114.812 56.1883 114.812 56.1883 114.812C56.1883 114.812 56.1883 114.812 56.1883 114.812C56.1883 114.812 56.1883 114.812 56.1883 114.812C56.1883 114.812 56.1883 114.812 56.1883 114.812C56.1883 114.812 56.1883 114.812 56.1883 114.812C56.1883 114.812 56.1883 114.812 56.1883 114.812C56.1883 114.812 56.1883 114.812 56.1883 114.812C56.1883 114.812 56.1883 114.812 56.1883 114.812C56.1883 114.812 56.1883 114.812 56.1883 114.812C56.1883 114.812 56.1883 114.812 56.1883 114.812C56.1883 114.812 56.1883 114.812 56.1883 114.812C56.1883 114.812 56.1883 114.812 56.1883 114.812C56.1883 114.812 56.1883 114.812 56.1884 114.812C56.1884 114.812 56.1884 114.812 56.1884 114.812C56.1884 114.812 56.1884 114.812 56.1884 114.812C56.1884 114.812 56.1884 114.812 56.1884 114.812C56.1884 114.812 56.1884 114.812 56.1884 114.812C56.1884 114.812 56.1884 114.812 56.1884 114.812C56.1884 114.812 56.1884 114.812 56.1884 114.812C56.1884 114.812 56.1884 114.812 56.1884 114.812C56.1884 114.812 56.1884 114.812 56.1884 114.812C56.1884 114.812 56.1884 114.812 56.1884 114.812C56.1884 114.812 56.1884 114.812 56.1884 114.812C56.1884 114.812 56.1884 114.812 56.1884 114.812C56.1884 114.812 56.1884 114.812 56.1884 114.812C56.1884 114.812 56.1884 114.812 56.1884 114.812C56.1884 114.812 56.1884 114.812 56.1884 114.812C56.1884 114.812 56.1884 114.812 56.1884 114.812C56.1884 114.812 56.1884 114.812 56.1884 114.812C56.1884 114.812 56.1884 114.812 56.1884 114.812C56.1884 114.812 56.1884 114.812 56.1884 114.812C56.1884 114.812 56.1884 114.812 56.1884 114.812C56.1884 114.812 56.1884 114.812 56.1884 114.812C56.1884 114.812 56.1884 114.812 56.1884 114.812C56.1884 114.812 56.1884 114.812 56.1884 114.812C56.1884 114.812 56.1884 114.812 56.1884 114.812C56.1884 114.812 56.1884 114.812 56.1884 114.812C56.1884 114.812 56.1884 114.812 56.1884 114.812C56.1884 114.812 56.1884 114.812 56.1884 114.812C56.1884 114.812 56.1884 114.812 56.1884 114.812C56.1884 114.812 56.1884 114.812 56.1884 114.812C56.1884 114.812 56.1884 114.812 56.1884 114.812C56.1884 114.812 56.1884 114.812 56.1884 114.812C56.1884 114.812 56.1884 114.812 56.1884 114.812C56.1884 114.812 56.1884 114.812 56.1884 114.812C56.1884 114.812 56.1884 114.812 56.1884 114.812C56.1884 114.812 56.1884 114.812 56.1884 114.812C56.1884 114.812 56.1884 114.812 56.1884 114.812C56.1884 114.812 56.1884 114.812 56.1884 114.812C56.1884 114.812 56.1884 114.812 56.1884 114.812C56.1884 114.812 56.1884 114.812 56.1884 114.812C56.1884 114.812 56.1884 114.812 56.1884 114.812C56.1884 114.812 56.1884 114.812 56.1884 114.812C56.1884 114.812 56.1884 114.812 56.1884 114.812C56.1884 114.812 56.1884 114.812 56.1884 114.812C56.1884 114.812 56.1884 114.812 56.1884 114.812C56.1884 114.812 56.1884 114.812 56.1884 114.812C56.1884 114.812 56.1884 114.812 56.1884 114.812C56.1884 114.812 56.1884 114.812 56.1884 114.812C56.1884 114.812 56.1884 114.812 56.1884 114.812C56.1884 114.812 56.1884 114.812 56.1884 114.812C56.1884 114.812 56.1884 114.812 56.1884 114.812C56.1884 114.812 56.1884 114.812 56.1884 114.812C56.1884 114.812 56.1884 114.812 56.1884 114.812C56.1884 114.812 56.1884 114.812 56.1884 114.812C56.1884 114.812 56.1884 114.812 56.1884 114.812C56.1884 114.812 56.1884 114.812 56.1884 114.812C56.1884 114.812 56.1884 114.812 56.1884 114.812C56.1884 114.812 56.1884 114.812 56.1884 114.812C56.1884 114.812 56.1884 114.812 56.1884 114.812C56.1884 114.812 56.1884 114.812 56.1884 114.812C56.1884 114.812 56.1884 114.812 56.1884 114.812C56.1884 114.812 56.1884 114.812 56.1884 114.812C56.1884 114.812 56.1884 114.812 56.1884 114.812C56.1884 114.812 56.1884 114.812 56.1884 114.812C56.1884 114.812 56.1884 114.812 56.1884 114.812C56.1884 114.812 56.1884 114.812 56.1884 114.812C56.1884 114.812 56.1884 114.812 56.1884 114.812C56.1884 114.812 56.1884 114.812 56.1884 114.812C56.1884 114.812 56.1884 114.812 56.1884 114.812C56.1884 114.812 56.1884 114.812 56.1884 114.812C56.1884 114.812 56.1884 114.812 56.1884 114.812C56.1884 114.812 56.1884 114.812 56.1884 114.812C56.1884 114.812 56.1884 114.812 56.1884 114.812C56.1884 114.812 56.1884 114.812 56.1884 114.812C56.1884 114.812 56.1884 114.812 56.1884 114.812C56.1884 114.812 56.1884 114.812 56.1884 114.812C56.1884 114.812 56.1884 114.812 56.1884 114.812C56.1884 114.812 56.1884 114.812 56.1884 114.812C56.1884 114.812 56.1884 114.812 56.1884 114.812C56.1884 114.812 56.1884 114.812 56.1884 114.812C56.1884 114.812 56.1884 114.812 56.1884 114.812C56.1884 114.812 56.1884 114.812 56.1884 114.812C56.1884 114.812 56.1884 114.812 56.1884 114.812C56.1884 114.812 56.1884 114.812 56.1884 114.812C56.1884 114.812 56.1884 114.812 56.1884 114.812C56.1884 114.812 56.1884 114.812 56.1884 114.812C56.1884 114.812 56.1884 114.812 56.1884 114.812C56.1884 114.812 56.1884 114.812 56.1884 114.812C56.1884 114.812 56.1884 114.812 56.1884 114.812C56.1884 114.812 56.1884 114.812 56.1884 114.812C56.1884 114.812 56.1884 114.812 56.1884 114.812C56.1884 114.812 56.1884 114.812 56.1884 114.812C56.1884 114.812 56.1884 114.812 56.1884 114.812C56.1884 114.812 56.1884 114.812 56.1884 114.812C56.1884 114.812 56.1885 114.812 56.1885 114.812C56.1885 114.812 56.1885 114.812 56.1885 114.812C56.1885 114.812 56.1885 114.812 56.1885 114.812C56.1885 114.812 56.1885 114.812 56.1885 114.812C56.1885 114.812 56.1885 114.812 56.1885 114.812C56.1885 114.812 56.1885 114.812 56.1885 114.812C56.1885 114.812 56.1885 114.812 56.1885 114.812C56.1885 114.812 56.1885 114.812 56.1885 114.812C56.1885 114.812 56.1885 114.812 56.1885 114.812C56.1885 114.812 56.1885 114.812 56.1885 114.812C56.1885 114.812 56.1885 114.812 56.1885 114.812C56.1885 114.812 56.1885 114.812 56.1885 114.812C56.1885 114.812 56.1885 114.812 56.1885 114.812C56.1885 114.812 56.1885 114.812 56.1885 114.812C56.1885 114.812 56.1885 114.812 56.1885 114.812C56.1885 114.812 56.1885 114.812 56.1885 114.812C56.1885 114.812 56.1885 114.812 56.1885 114.812C56.1885 114.812 56.1885 114.812 56.1885 114.812C56.1885 114.812 56.1885 114.812 56.1885 114.812C56.1885 114.812 56.1885 114.812 56.1885 114.812C56.1885 114.812 56.1885 114.812 56.1885 114.812C56.1885 114.812 56.1885 114.812 56.1885 114.812C56.1885 114.812 56.1885 114.812 56.1885 114.812C56.1885 114.812 56.1885 114.812 56.1885 114.812C56.1885 114.812 56.1885 114.812 56.1885 114.812C56.1885 114.812 56.1885 114.812 56.1885 114.812C56.1885 114.812 56.1885 114.812 56.1885 114.812C56.1885 114.812 56.1885 114.812 56.1885 114.812C56.1885 114.812 56.1885 114.812 56.1885 114.812C56.1885 114.812 56.1885 114.812 56.1885 114.812C56.1885 114.812 56.1885 114.812 56.1885 114.812C56.1885 114.812 56.1885 114.812 56.1885 114.812C56.1885 114.812 56.1885 114.812 56.1885 114.812C56.1885 114.812 56.1885 114.812 56.1885 114.812C56.1885 114.812 56.1885 114.812 56.1885 114.812C56.1885 114.812 56.1885 114.812 56.1885 114.812C56.1885 114.812 56.1885 114.812 56.1885 114.812C56.1885 114.812 56.1885 114.812 56.1885 114.812C56.1885 114.812 56.1885 114.812 56.1885 114.812C56.1885 114.812 56.1885 114.812 56.1885 114.812C56.1885 114.812 56.1885 114.812 56.1885 114.812C56.1885 114.812 56.1885 114.812 56.1885 114.812C56.1885 114.812 56.1885 114.812 56.1885 114.812C56.1885 114.812 56.1885 114.812 56.1885 114.812C56.1885 114.812 56.1885 114.812 56.1885 114.812C56.1885 114.812 56.1885 114.812 56.1885 114.812C56.1885 114.812 56.1885 114.812 56.1885 114.812C56.1885 114.812 56.1885 114.812 56.1885 114.812C56.1885 114.812 56.1885 114.812 56.1885 114.812C56.1885 114.812 56.1885 114.812 56.1885 114.812C56.1885 114.812 56.1885 114.812 56.1885 114.812C56.1885 114.812 56.1885 114.812 56.1885 114.812C56.1885 114.812 56.1885 114.812 56.1885 114.812C56.1885 114.812 56.1885 114.812 56.1885 114.812C56.1885 114.812 56.1885 114.812 56.1885 114.812C56.1885 114.812 56.1885 114.812 56.1885 114.812C56.1885 114.812 56.1885 114.812 56.1885 114.812C56.1885 114.812 56.1885 114.812 56.1885 114.812C56.1885 114.812 56.1885 114.812 56.1885 114.812C56.1885 114.812 56.1885 114.812 56.1885 114.812C56.1885 114.812 56.1885 114.812 56.1885 114.812C56.1885 114.812 56.1885 114.812 56.1885 114.812C56.1885 114.812 56.1885 114.812 56.1885 114.812C56.1885 114.812 56.1885 114.812 56.1885 114.812C56.1885 114.812 56.1885 114.812 56.1885 114.812C56.1885 114.812 56.1885 114.812 56.1885 114.812C56.1885 114.812 56.1885 114.812 56.1885 114.812C56.1885 114.812 56.1885 114.812 56.1885 114.812C56.1885 114.812 56.1885 114.812 56.1885 114.812C56.1885 114.812 56.1885 114.812 56.1885 114.812C56.1885 114.812 56.1885 114.812 56.1885 114.812C56.1885 114.812 56.1885 114.812 56.1885 114.812C56.1885 114.812 56.1885 114.812 56.1885 114.812C56.1885 114.812 56.1885 114.812 56.1885 114.812C56.1885 114.812 56.1885 114.812 56.1885 114.812C56.1885 114.812 56.1885 114.812 56.1885 114.812C56.1885 114.812 56.1885 114.812 56.1885 114.812C56.1885 114.812 56.1885 114.812 56.1885 114.812C56.1885 114.812 56.1885 114.812 56.1885 114.812C56.1885 114.812 56.1885 114.812 56.1885 114.812C56.1885 114.812 56.1885 114.812 56.1885 114.812C56.1885 114.812 56.1885 114.812 56.1885 114.812C56.1885 114.812 56.1885 114.812 56.1885 114.812C56.1885 114.812 56.1885 114.812 56.1885 114.812C56.1885 114.812 56.1885 114.812 56.1885 114.812V112.812ZM112 57.0001C112 87.824 87.0124 112.812 56.1885 112.812V114.812C88.117 114.812 114 88.9285 114 57.0001H112ZM56.1885 1.18848C87.0124 1.18848 112 26.1762 112 57.0001H114C114 25.0716 88.117 -0.811523 56.1885 -0.811523V1.18848ZM56.188 1.18848C56.1881 1.18848 56.1882 1.18848 56.1883 1.18848C56.1884 1.18848 56.1885 1.18848 56.1885 1.18848V-0.811523C56.1884 -0.811523 56.1883 -0.811523 56.1883 -0.811523C56.1882 -0.811523 56.1881 -0.811523 56.188 -0.811523V1.18848ZM55.188 0.188477V113.812H57.188V0.188477H55.188Z" fill="#DF991B" mask="url(#path-1-inside-1_2_196)"/>
    <circle cx="56" cy="57" r="56" fill="white"/>
</svg>
