<svg xmlns="http://www.w3.org/2000/svg" width="90" height="25" viewBox="0 0 90 25" fill="none">
  <path d="M10.5124 22.3137C6.64066 22.3137 4.48424 20.2062 3.38152 18.4174C2.40132 16.8736 1.88672 14.9622 1.88672 12.9283V0.724854H2.86691V12.9283C2.86691 14.7907 3.33251 16.506 4.19018 17.8783C5.61146 20.1572 7.74338 21.309 10.4879 21.309C13.2325 21.309 15.3644 20.1572 16.8102 17.8783C17.6924 16.4815 18.158 14.7661 18.158 12.9038V0.724854H19.1381V12.9038C19.1381 14.9622 18.6235 16.8491 17.6434 18.4174C16.5161 20.2062 14.3842 22.3137 10.4879 22.3137H10.5124Z" fill="white"/>
  <path d="M10.5126 24.1515C6.98389 24.1515 4.21484 22.9263 2.22994 20.5003C0.808661 18.7359 0 16.3835 0 13.9085V0.724854H1.0047V13.9085C1.0047 16.1629 1.71534 18.2703 3.0141 19.8632C4.77845 22.0441 7.30245 23.1468 10.5126 23.1468C13.7227 23.1468 16.2467 22.0441 18.0356 19.8387C19.3343 18.2458 20.045 16.1139 20.045 13.8595V0.724854H21.0252V13.8595C21.0252 16.3345 20.241 18.6869 18.7952 20.4513C16.8103 22.8773 14.0168 24.127 10.4881 24.127L10.5126 24.1515Z" fill="white"/>
  <path d="M57.1208 0.724854H56.1406V23.6369H57.1208V0.724854Z" fill="white"/>
  <path d="M58.9597 0.724854H57.9795V23.6369H58.9597V0.724854Z" fill="white"/>
  <path d="M48.9607 23.6614V0.724854H47.956V22.4607L28.9893 3.4694V23.6614H29.9695V5.87088L47.76 23.6614H48.9607Z" fill="white"/>
  <path d="M46.1662 0.749358V18.2458L28.3511 0.724854H27.1504V23.6614H28.1306V1.92559L47.1464 20.6228V0.749358H46.1662Z" fill="white"/>
  <path d="M78.5383 15.0355L86.968 23.5632L87.6786 22.8281L78.5383 13.6877V15.0355Z" fill="white"/>
  <path d="M89.4434 12.1931C89.4434 5.65032 84.1258 0.332764 77.583 0.332764C71.0402 0.332764 65.7227 5.65032 65.7227 12.1931C65.7227 18.7359 71.0402 24.0535 77.583 24.0535C80.1315 24.0535 82.5085 23.2203 84.4444 21.848L83.7337 21.1374C81.9694 22.3381 79.862 23.0733 77.583 23.0733C71.5793 23.0733 66.7029 18.1968 66.7029 12.1931C66.7029 6.18943 71.6038 1.31296 77.583 1.31296C83.5622 1.31296 88.4632 6.18943 88.4632 12.1931C88.4632 14.6926 87.6055 16.9961 86.1842 18.8339C85.9882 19.1035 85.7676 19.3485 85.5226 19.5936L86.2332 20.3042L88.1446 22.2156L88.8553 21.505L86.8704 19.5446C88.4632 17.5352 89.4434 14.9867 89.4434 12.1931Z" fill="white"/>
  <path d="M80.3505 13.0753H79.0027L84.1242 18.1968L84.8349 18.9074C85.0554 18.6624 85.276 18.4173 85.472 18.1478C86.7217 16.4814 87.4814 14.423 87.4814 12.1931C87.4814 6.75301 83.046 2.31763 77.6059 2.31763C72.1659 2.31763 67.7305 6.75301 67.7305 12.1931C67.7305 17.6332 72.1659 22.0686 77.6059 22.0686C79.6888 22.0686 81.6002 21.4314 83.193 20.3287L82.4824 19.6181C81.0856 20.5493 79.3948 21.0884 77.6059 21.0884C72.705 21.0884 68.7107 17.0941 68.7107 12.1931C68.7107 7.29212 72.705 3.29782 77.6059 3.29782C82.5069 3.29782 86.5012 7.29212 86.5012 12.1931C86.5012 14.1535 85.8641 15.9668 84.7614 17.4371L80.3505 13.0753Z" fill="white"/>
</svg>
<svg xmlns="http://www.w3.org/2000/svg" width="169" height="25" viewBox="0 0 169 25" fill="none">
  <path d="M11.189 23.2457H12.7328C14.8158 23.2457 16.4576 22.6821 17.6583 21.5549C18.8591 20.4277 20.0598 18.4673 21.2605 15.6492C21.4321 15.2816 21.5791 15.1101 21.7751 15.1101C21.8241 15.1101 21.8732 15.1101 21.9222 15.1101C21.9712 15.1101 21.9957 15.1101 22.0202 15.1101L20.1578 24.2259C19.1041 23.9074 17.0212 23.7358 13.9091 23.7358H0.235352V23.5398C0.235352 23.3682 0.406889 23.2702 0.774462 23.1722C1.14203 23.0987 1.55862 23.0007 1.99971 22.9272C2.4653 22.8291 2.85738 22.5351 3.22495 22.045C3.59252 21.5549 3.76406 20.8687 3.76406 19.9621V3.96038C3.76406 3.22524 3.59252 2.66162 3.22495 2.26955C2.85738 1.87747 2.4653 1.63242 2.02422 1.55891C1.58313 1.48539 1.19105 1.38737 0.823473 1.31386C0.4559 1.21584 0.284362 1.09331 0.284362 0.946283V0.750244H11.7772V0.946283C11.7772 1.11782 11.5811 1.24034 11.2135 1.31386C10.846 1.41188 10.4294 1.48539 9.9883 1.55891C9.54721 1.63242 9.13063 1.87747 8.76305 2.29405C8.39548 2.71063 8.19943 3.27425 8.19943 3.98489C8.19943 5.50419 8.19943 8.24874 8.19943 12.2185C8.19943 16.1883 8.19943 18.9084 8.19943 20.4522C8.19943 21.3588 8.44449 22.0695 8.91008 22.5351C9.37567 23.0252 10.1598 23.2457 11.2135 23.2457H11.189Z" fill="white"/>
  <path d="M48.8283 14.0799C48.8283 20.7942 45.8142 24.1514 39.786 24.1514C33.1452 24.1514 29.8125 21.2843 29.8125 15.5747V3.95934C29.8125 3.2242 29.641 2.66058 29.2734 2.26851C28.9303 1.87643 28.5138 1.63138 28.0972 1.55787C27.6806 1.48435 27.264 1.38633 26.9209 1.31282C26.5779 1.2148 26.3818 1.09227 26.3818 0.945244V0.749205H37.8011V0.945244C37.8011 1.11678 37.6541 1.2148 37.3845 1.31282C37.0905 1.38633 36.7719 1.45985 36.4043 1.50886C36.0368 1.55787 35.6692 1.7294 35.3261 1.99895C34.983 2.26851 34.738 2.66059 34.6155 3.12618C34.3459 3.83682 34.1989 4.64548 34.1989 5.60117V15.8197C34.1989 18.3192 34.689 20.2061 35.6447 21.5048C36.6004 22.8036 38.3647 23.4407 40.9132 23.4407C43.1432 23.4407 44.932 22.6811 46.2553 21.1373C47.5785 19.618 48.2157 17.4125 48.2157 14.5454V5.06206C48.2157 4.08187 47.9951 3.29771 47.5786 2.7341C47.162 2.17049 46.6964 1.80291 46.1818 1.68039C45.6672 1.55787 45.2261 1.43534 44.785 1.31282C44.3684 1.19029 44.1479 1.06777 44.1479 0.896234V0.700195H52.7981V0.896234C52.7981 1.06777 52.602 1.19029 52.1855 1.31282C51.7689 1.43534 51.3278 1.55787 50.8132 1.68039C50.2986 1.80291 49.8575 2.14598 49.4409 2.7341C49.0243 3.29771 48.8283 4.08187 48.8283 5.06206V14.0799Z" fill="white"/>
  <path d="M72.9413 20.1079L68.7265 13.5896L65.6389 18.0005C64.3646 19.8629 63.7275 21.0636 63.7275 21.6272C63.7275 22.0193 63.8745 22.3133 64.1686 22.5584C64.4626 22.7789 64.7812 22.926 65.1243 22.975C65.4673 23.024 65.7859 23.0975 66.08 23.1955C66.374 23.2935 66.521 23.4161 66.521 23.5631V23.7346H57.9443V23.5631C57.9443 23.3916 58.0424 23.2935 58.2384 23.22C58.4344 23.1465 58.7285 23.073 59.1206 22.975C59.5126 22.877 59.9537 22.7054 60.4438 22.4849C60.9339 22.2643 61.4975 21.8723 62.1592 21.3086C62.8208 20.745 63.4579 20.0099 64.0706 19.1032L68.3834 13.026L63.0658 4.76785C62.6248 4.08171 62.1837 3.4936 61.6936 3.0035C61.2035 2.5134 60.7869 2.17033 60.4438 1.94979C60.1008 1.72925 59.7577 1.55771 59.4636 1.43519C59.1696 1.31266 58.949 1.21464 58.802 1.11662C58.655 1.01861 58.5815 0.945091 58.5815 0.871576V0.675537H69.6332V0.871576C69.6332 1.04311 69.4861 1.16563 69.2166 1.23915C68.947 1.33717 68.6285 1.41068 68.3099 1.4842C67.9668 1.55771 67.6728 1.68024 67.4032 1.90078C67.1337 2.09682 66.9866 2.39088 66.9866 2.75845C66.9866 3.07701 67.2072 3.61612 67.6483 4.37577C68.0894 5.13542 68.751 6.16463 69.6332 7.48789C70.5153 8.78665 71.0789 9.64432 71.324 10.0609L74.3136 5.65003C75.1958 4.32676 75.6614 3.39558 75.6614 2.83197C75.6614 2.43989 75.5388 2.14583 75.2938 1.92529C75.0487 1.70474 74.7547 1.58222 74.4606 1.53321C74.1666 1.4842 73.8725 1.41068 73.6275 1.31266C73.3824 1.21464 73.2599 1.06762 73.2599 0.896081V0.700042H81.616V0.896081C81.616 1.06762 81.4445 1.23915 81.0769 1.33717C80.7339 1.45969 80.2683 1.58222 79.7292 1.72925C79.1901 1.87628 78.4794 2.29286 77.5972 2.979C76.7151 3.66513 75.8819 4.59632 75.0487 5.74805L71.6671 10.551L78.3079 20.696C78.7735 21.3331 79.2636 21.8477 79.8027 22.2398C80.3418 22.6319 80.7829 22.8524 81.1505 22.9505C81.4935 23.024 81.8121 23.122 82.0571 23.1955C82.3022 23.2935 82.4247 23.3916 82.4247 23.5386V23.7346H70.8584V23.5631C70.8584 23.4161 71.0054 23.318 71.275 23.1955C71.5445 23.0975 71.8631 22.9995 72.2062 22.9505C72.5492 22.877 72.8678 22.7299 73.1374 22.5339C73.4069 22.3133 73.5539 22.0438 73.5539 21.7007C73.5539 21.2351 73.3579 20.696 72.9413 20.0834V20.1079Z" fill="white"/>
  <path d="M110.116 14.0799C110.116 20.7942 107.102 24.1514 101.074 24.1514C94.4333 24.1514 91.1006 21.2843 91.1006 15.5747V3.95934C91.1006 3.2242 90.9291 2.66058 90.5615 2.26851C90.2184 1.87643 89.8019 1.63138 89.3853 1.55787C88.9687 1.48435 88.5521 1.38633 88.209 1.31282C87.866 1.2148 87.6699 1.09227 87.6699 0.945244V0.749205H99.0892V0.945244C99.0892 1.11678 98.9422 1.2148 98.6726 1.31282C98.3785 1.38633 98.06 1.45985 97.6924 1.50886C97.3249 1.55787 96.9573 1.7294 96.6142 1.99895C96.2711 2.26851 96.0261 2.66059 95.9036 3.12618C95.634 3.83682 95.487 4.64548 95.487 5.60117V15.8197C95.487 18.3192 95.9771 20.2061 96.9328 21.5048C97.8884 22.8036 99.6528 23.4407 102.201 23.4407C104.431 23.4407 106.22 22.6811 107.543 21.1373C108.867 19.618 109.504 17.4125 109.504 14.5454V5.06206C109.504 4.08187 109.283 3.29771 108.867 2.7341C108.45 2.17049 107.984 1.80291 107.47 1.68039C106.955 1.55787 106.514 1.43534 106.073 1.31282C105.657 1.19029 105.436 1.06777 105.436 0.896234V0.700195H114.086V0.896234C114.086 1.06777 113.89 1.19029 113.474 1.31282C113.057 1.43534 112.616 1.55787 112.101 1.68039C111.587 1.80291 111.146 2.14598 110.729 2.7341C110.312 3.29771 110.116 4.08187 110.116 5.06206V14.0799Z" fill="white"/>
  <path d="M128.372 12.8055H127.588V20.1324C127.588 20.9901 127.784 21.6517 128.152 22.1173C128.519 22.5829 128.936 22.877 129.377 22.9505C129.818 23.024 130.234 23.122 130.602 23.1955C130.97 23.2935 131.166 23.4161 131.166 23.5631V23.7346H119.673V23.5631C119.673 23.3916 119.844 23.2445 120.212 23.1465C120.58 23.0485 120.972 22.975 121.437 22.877C121.878 22.7789 122.295 22.4604 122.662 21.9213C123.03 21.3822 123.202 20.647 123.202 19.6668V3.95919C123.202 3.22404 123.03 2.66043 122.662 2.24385C122.295 1.82727 121.903 1.58222 121.462 1.53321C121.021 1.4842 120.629 1.38618 120.261 1.31266C119.893 1.23915 119.722 1.09212 119.722 0.920586V0.675537H129.695C132.783 0.675537 135.184 1.16563 136.924 2.14583C138.64 3.12602 139.522 4.64533 139.522 6.70374C139.522 8.49259 138.689 9.96288 137.047 11.1391C135.38 12.3154 133.053 12.879 130.038 12.879C129.94 12.879 129.769 12.879 129.524 12.879C129.279 12.879 129.107 12.879 129.034 12.879C129.989 14.0307 131.803 14.5698 134.449 14.5208L138.885 20.794C139.522 21.6762 140.208 22.3133 140.943 22.6564C141.678 22.9995 142.242 23.22 142.634 23.269C143.026 23.318 143.222 23.4651 143.222 23.6611V23.8081H136.189L128.397 12.83L128.372 12.8055ZM127.588 1.23915V12.2663H128.985C130.823 12.2663 132.244 11.7517 133.298 10.747C134.327 9.71784 134.866 8.41908 134.866 6.77725C134.866 5.13542 134.327 3.73865 133.249 2.75845C132.17 1.75375 130.774 1.26365 129.058 1.26365H127.612L127.588 1.23915Z" fill="white"/>
  <path d="M159.272 12.634H159.37L162.801 5.91964C163.462 4.66989 163.805 3.73871 163.805 3.15059C163.805 2.56247 163.56 2.12139 163.07 1.87634C162.58 1.60678 162.09 1.43525 161.6 1.33723C161.11 1.23921 160.865 1.11669 160.865 0.969658V0.724609H169V0.969658C169 1.14119 168.829 1.26372 168.51 1.36174C168.192 1.45976 167.8 1.55778 167.334 1.6803C166.868 1.77832 166.305 2.12139 165.692 2.685C165.079 3.24861 164.491 4.00826 164.001 4.96395C162.752 7.31642 161.281 10.11 159.615 13.3691V20.1815C159.615 21.0392 159.811 21.7008 160.179 22.1664C160.546 22.632 160.963 22.926 161.404 22.9995C161.845 23.0731 162.261 23.1711 162.629 23.2446C162.997 23.3426 163.193 23.4651 163.193 23.6122V23.7837H151.749V23.6122C151.749 23.4406 151.92 23.3181 152.288 23.2446C152.656 23.1466 153.048 23.0731 153.464 22.975C153.881 22.877 154.273 22.6075 154.64 22.1174C155.008 21.6273 155.18 20.9656 155.18 20.1325V14.0063L149.445 3.81222C149.078 3.1751 148.686 2.66049 148.22 2.29292C147.779 1.92535 147.387 1.6803 147.068 1.58228C146.75 1.48426 146.48 1.41075 146.26 1.31273C146.039 1.21471 145.941 1.09218 145.941 0.945153V0.749114H156.601V0.994163C156.601 1.14119 156.454 1.23921 156.16 1.33723C155.866 1.43525 155.572 1.50877 155.229 1.55778C154.885 1.60678 154.591 1.75381 154.297 1.97436C154.003 2.1949 153.856 2.46446 153.856 2.80752C153.856 3.10158 153.954 3.39564 154.126 3.6897L159.198 12.683L159.272 12.634Z" fill="white"/>
</svg>