<svg xmlns="http://www.w3.org/2000/svg" width="90" height="25" viewBox="0 0 90 25" fill="none">
  <path d="M10.5124 22.3137C6.64066 22.3137 4.48424 20.2062 3.38152 18.4174C2.40132 16.8736 1.88672 14.9622 1.88672 12.9283V0.724854H2.86691V12.9283C2.86691 14.7907 3.33251 16.506 4.19018 17.8783C5.61146 20.1572 7.74338 21.309 10.4879 21.309C13.2325 21.309 15.3644 20.1572 16.8102 17.8783C17.6924 16.4815 18.158 14.7661 18.158 12.9038V0.724854H19.1381V12.9038C19.1381 14.9622 18.6235 16.8491 17.6434 18.4174C16.5161 20.2062 14.3842 22.3137 10.4879 22.3137H10.5124Z" fill="white"/>
  <path d="M10.5126 24.1515C6.98389 24.1515 4.21484 22.9263 2.22994 20.5003C0.808661 18.7359 0 16.3835 0 13.9085V0.724854H1.0047V13.9085C1.0047 16.1629 1.71534 18.2703 3.0141 19.8632C4.77845 22.0441 7.30245 23.1468 10.5126 23.1468C13.7227 23.1468 16.2467 22.0441 18.0356 19.8387C19.3343 18.2458 20.045 16.1139 20.045 13.8595V0.724854H21.0252V13.8595C21.0252 16.3345 20.241 18.6869 18.7952 20.4513C16.8103 22.8773 14.0168 24.127 10.4881 24.127L10.5126 24.1515Z" fill="white"/>
  <path d="M57.1208 0.724854H56.1406V23.6369H57.1208V0.724854Z" fill="white"/>
  <path d="M58.9597 0.724854H57.9795V23.6369H58.9597V0.724854Z" fill="white"/>
  <path d="M48.9607 23.6614V0.724854H47.956V22.4607L28.9893 3.4694V23.6614H29.9695V5.87088L47.76 23.6614H48.9607Z" fill="white"/>
  <path d="M46.1662 0.749358V18.2458L28.3511 0.724854H27.1504V23.6614H28.1306V1.92559L47.1464 20.6228V0.749358H46.1662Z" fill="white"/>
  <path d="M78.5383 15.0355L86.968 23.5632L87.6786 22.8281L78.5383 13.6877V15.0355Z" fill="white"/>
  <path d="M89.4434 12.1931C89.4434 5.65032 84.1258 0.332764 77.583 0.332764C71.0402 0.332764 65.7227 5.65032 65.7227 12.1931C65.7227 18.7359 71.0402 24.0535 77.583 24.0535C80.1315 24.0535 82.5085 23.2203 84.4444 21.848L83.7337 21.1374C81.9694 22.3381 79.862 23.0733 77.583 23.0733C71.5793 23.0733 66.7029 18.1968 66.7029 12.1931C66.7029 6.18943 71.6038 1.31296 77.583 1.31296C83.5622 1.31296 88.4632 6.18943 88.4632 12.1931C88.4632 14.6926 87.6055 16.9961 86.1842 18.8339C85.9882 19.1035 85.7676 19.3485 85.5226 19.5936L86.2332 20.3042L88.1446 22.2156L88.8553 21.505L86.8704 19.5446C88.4632 17.5352 89.4434 14.9867 89.4434 12.1931Z" fill="white"/>
  <path d="M80.3505 13.0753H79.0027L84.1242 18.1968L84.8349 18.9074C85.0554 18.6624 85.276 18.4173 85.472 18.1478C86.7217 16.4814 87.4814 14.423 87.4814 12.1931C87.4814 6.75301 83.046 2.31763 77.6059 2.31763C72.1659 2.31763 67.7305 6.75301 67.7305 12.1931C67.7305 17.6332 72.1659 22.0686 77.6059 22.0686C79.6888 22.0686 81.6002 21.4314 83.193 20.3287L82.4824 19.6181C81.0856 20.5493 79.3948 21.0884 77.6059 21.0884C72.705 21.0884 68.7107 17.0941 68.7107 12.1931C68.7107 7.29212 72.705 3.29782 77.6059 3.29782C82.5069 3.29782 86.5012 7.29212 86.5012 12.1931C86.5012 14.1535 85.8641 15.9668 84.7614 17.4371L80.3505 13.0753Z" fill="white"/>
</svg>